<svg width="258" height="257" viewBox="0 0 258 257" fill="none" xmlns="http://www.w3.org/2000/svg">
<ellipse cx="129" cy="128.394" rx="129" ry="128.394" fill="#153049"/>
<circle cx="129" cy="127.789" r="108.408" fill="white"/>
<path d="M220.451 100.535C243.465 228.324 93.8732 252.549 57.5352 193.803C52.933 188.153 44.2586 180.551 48.4507 187.141C52.6428 193.731 42.4205 187.883 39.3662 181.69C37.0442 176.982 38.8847 168.265 39.3662 164.732C39.3961 170.978 40.0381 174.171 43.6056 178.662C45.1227 180.849 49.8037 182.516 57.5352 176.845C66.5132 170.259 73.8873 152.014 85.3944 132.028C94.6 116.039 103.362 115.272 106.592 116.887C123.549 120.279 109.62 140.507 129 150.197C134.988 151.993 144.527 143.134 152.936 135.325L153.225 135.056C161.704 125.972 166.778 115.208 181.084 100.535C195.015 86.2481 199.386 88.9577 209.549 84.7888C217.063 81.7064 222.671 81.9624 224.084 82.9718C223.277 82.9718 217.615 84.7888 220.451 100.535Z" fill="#28A9E2"/>
<path d="M216.63 105.38C211.301 103.442 202.701 104.573 199.067 105.38C195.433 102.352 216.63 96.2957 216.63 95.6901C216.63 95.0845 214.208 90.845 212.997 89.0281C212.028 87.5746 219.86 87.2112 223.898 87.2112C222.889 90.6432 220.87 98.2338 220.87 101.141C220.87 104.048 218.043 105.178 216.63 105.38Z" fill="white"/>
<path d="M199.254 65.4085C101.868 -19.3807 22.8661 78.9355 35.5844 141.921L36.9438 147.775L38.7608 154.437C38.7608 150.561 45.3689 139.496 47.9933 136.065C41.6947 155.929 45.3689 161.703 47.9933 162.107C60.5905 151.448 70.4018 106.389 98.2609 97.9097C126.12 89.4308 114.007 137.882 123.697 130.614C133.388 123.346 163.454 64.3003 205.31 73.8873C206.521 73.8873 202.887 68.5722 199.254 65.4085Z" fill="#173653"/>
<path d="M130.817 154.437C130.941 154.534 131.072 154.626 131.209 154.71C135.156 156.609 152.191 145.466 156.859 140.798C160.109 137.548 170.385 125.972 176.239 121.732C197.437 107.803 207.127 113.253 205.915 119.915C207.854 128.152 195.014 129 185.93 133.239C176.978 137.417 140.391 160.41 131.209 154.71C131.059 154.638 130.928 154.547 130.817 154.437Z" fill="white"/>
<path d="M114.98 197.358L118.546 192.944L107.066 183.849L118.546 174.754L114.98 170.341L100.716 181.643C100.382 181.907 100.112 182.243 99.9263 182.625C99.7409 183.007 99.6447 183.426 99.6447 183.849C99.6447 184.273 99.7409 184.692 99.9263 185.074C100.112 185.456 100.382 185.791 100.716 186.056L114.98 197.358ZM141.368 170.341L137.802 174.754L149.282 183.849L137.802 192.944L141.368 197.358L155.632 186.056C155.967 185.791 156.236 185.456 156.422 185.074C156.607 184.692 156.703 184.273 156.703 183.849C156.703 183.426 156.607 183.007 156.422 182.625C156.236 182.243 155.967 181.907 155.632 181.643L141.368 170.341Z" fill="#363543"/>
<path d="M136.501 163.286L125.09 214.145L119.518 212.918L130.93 162.06L136.501 163.286Z" fill="#363543"/>
</svg>
